<mxfile host="app.diagrams.net" agent="Mozilla/5.0 (Windows NT 10.0; Win64; x64) AppleWebKit/537.36 (KHTML, like Gecko) Chrome/135.0.0.0 Safari/537.36 Edg/135.0.0.0" version="26.1.0">
  <diagram name="第 1 页" id="d_h7h1cQ3qlV7VPmMfWu">
    <mxGraphModel dx="1666" dy="755" grid="1" gridSize="10" guides="1" tooltips="1" connect="1" arrows="1" fold="1" page="1" pageScale="1" pageWidth="827" pageHeight="1169" math="0" shadow="0">
      <root>
        <mxCell id="0" />
        <mxCell id="1" parent="0" />
        <mxCell id="o5-bsseLaIwbIUYOv_GG-6" style="edgeStyle=orthogonalEdgeStyle;rounded=0;orthogonalLoop=1;jettySize=auto;html=1;exitX=1;exitY=0.5;exitDx=0;exitDy=0;entryX=0;entryY=0.5;entryDx=0;entryDy=0;" edge="1" parent="1" source="o5-bsseLaIwbIUYOv_GG-1" target="o5-bsseLaIwbIUYOv_GG-3">
          <mxGeometry relative="1" as="geometry" />
        </mxCell>
        <mxCell id="o5-bsseLaIwbIUYOv_GG-1" value="小红书昵称生成器" style="rounded=1;whiteSpace=wrap;html=1;" vertex="1" parent="1">
          <mxGeometry x="244" y="560" width="120" height="60" as="geometry" />
        </mxCell>
        <mxCell id="o5-bsseLaIwbIUYOv_GG-2" value="&lt;font style=&quot;font-size: 18px;&quot;&gt;&lt;b&gt;起号可能涉及的工具&lt;/b&gt;&lt;/font&gt;" style="text;html=1;align=center;verticalAlign=middle;resizable=0;points=[];autosize=1;strokeColor=none;fillColor=none;" vertex="1" parent="1">
          <mxGeometry y="260" width="190" height="40" as="geometry" />
        </mxCell>
        <mxCell id="o5-bsseLaIwbIUYOv_GG-3" value="小红书账号简介生成" style="rounded=1;whiteSpace=wrap;html=1;" vertex="1" parent="1">
          <mxGeometry x="420" y="560" width="120" height="60" as="geometry" />
        </mxCell>
        <mxCell id="o5-bsseLaIwbIUYOv_GG-8" value="账号定位分析&lt;br&gt;（结合你自身的优势，确定赛道）" style="ellipse;whiteSpace=wrap;html=1;" vertex="1" parent="1">
          <mxGeometry x="370" y="230" width="80" height="80" as="geometry" />
        </mxCell>
        <mxCell id="o5-bsseLaIwbIUYOv_GG-10" value="小红书选题灵感助手&lt;br&gt;（生成赛道建议）" style="ellipse;whiteSpace=wrap;html=1;" vertex="1" parent="1">
          <mxGeometry x="240" y="230" width="80" height="80" as="geometry" />
        </mxCell>
        <mxCell id="o5-bsseLaIwbIUYOv_GG-11" value="爆款文案" style="ellipse;whiteSpace=wrap;html=1;" vertex="1" parent="1">
          <mxGeometry x="480" y="230" width="80" height="80" as="geometry" />
        </mxCell>
        <mxCell id="o5-bsseLaIwbIUYOv_GG-12" value="敏感词检测" style="ellipse;whiteSpace=wrap;html=1;" vertex="1" parent="1">
          <mxGeometry x="580" y="230" width="80" height="80" as="geometry" />
        </mxCell>
        <mxCell id="o5-bsseLaIwbIUYOv_GG-13" value="素材下载去水印" style="ellipse;whiteSpace=wrap;html=1;" vertex="1" parent="1">
          <mxGeometry x="670" y="230" width="80" height="80" as="geometry" />
        </mxCell>
        <mxCell id="o5-bsseLaIwbIUYOv_GG-14" value="爆款标题" style="ellipse;whiteSpace=wrap;html=1;" vertex="1" parent="1">
          <mxGeometry x="240" y="340" width="80" height="80" as="geometry" />
        </mxCell>
        <mxCell id="o5-bsseLaIwbIUYOv_GG-15" value="emoji表情" style="ellipse;whiteSpace=wrap;html=1;" vertex="1" parent="1">
          <mxGeometry x="360" y="340" width="80" height="80" as="geometry" />
        </mxCell>
        <mxCell id="o5-bsseLaIwbIUYOv_GG-16" value="参考链接：https://xhsplus.io/workspace#/ai-creater" style="text;html=1;align=center;verticalAlign=middle;resizable=0;points=[];autosize=1;strokeColor=none;fillColor=none;" vertex="1" parent="1">
          <mxGeometry x="460" y="365" width="290" height="30" as="geometry" />
        </mxCell>
      </root>
    </mxGraphModel>
  </diagram>
</mxfile>
